<svg id="visual" viewBox="0 0 960 540" width="960" height="540" xmlns="http://www.w3.org/2000/svg" xmlns:xlink="http://www.w3.org/1999/xlink" version="1.1"><rect x="0" y="0" width="960" height="540" fill="#001220"></rect><defs><linearGradient id="grad1_0" x1="43.8%" y1="100%" x2="100%" y2="0%"><stop offset="14.444444444444446%" stop-color="#fbae3c" stop-opacity="1"></stop><stop offset="85.55555555555554%" stop-color="#fbae3c" stop-opacity="1"></stop></linearGradient></defs><defs><linearGradient id="grad1_1" x1="43.8%" y1="100%" x2="100%" y2="0%"><stop offset="14.444444444444446%" stop-color="#fbae3c" stop-opacity="1"></stop><stop offset="85.55555555555554%" stop-color="#f17c53" stop-opacity="1"></stop></linearGradient></defs><defs><linearGradient id="grad1_2" x1="43.8%" y1="100%" x2="100%" y2="0%"><stop offset="14.444444444444446%" stop-color="#cc5867" stop-opacity="1"></stop><stop offset="85.55555555555554%" stop-color="#f17c53" stop-opacity="1"></stop></linearGradient></defs><defs><linearGradient id="grad1_3" x1="43.8%" y1="100%" x2="100%" y2="0%"><stop offset="14.444444444444446%" stop-color="#cc5867" stop-opacity="1"></stop><stop offset="85.55555555555554%" stop-color="#96446e" stop-opacity="1"></stop></linearGradient></defs><defs><linearGradient id="grad1_4" x1="43.8%" y1="100%" x2="100%" y2="0%"><stop offset="14.444444444444446%" stop-color="#593762" stop-opacity="1"></stop><stop offset="85.55555555555554%" stop-color="#96446e" stop-opacity="1"></stop></linearGradient></defs><defs><linearGradient id="grad1_5" x1="43.8%" y1="100%" x2="100%" y2="0%"><stop offset="14.444444444444446%" stop-color="#593762" stop-opacity="1"></stop><stop offset="85.55555555555554%" stop-color="#232745" stop-opacity="1"></stop></linearGradient></defs><defs><linearGradient id="grad1_6" x1="43.8%" y1="100%" x2="100%" y2="0%"><stop offset="14.444444444444446%" stop-color="#001220" stop-opacity="1"></stop><stop offset="85.55555555555554%" stop-color="#232745" stop-opacity="1"></stop></linearGradient></defs><defs><linearGradient id="grad2_0" x1="0%" y1="100%" x2="56.3%" y2="0%"><stop offset="14.444444444444446%" stop-color="#fbae3c" stop-opacity="1"></stop><stop offset="85.55555555555554%" stop-color="#fbae3c" stop-opacity="1"></stop></linearGradient></defs><defs><linearGradient id="grad2_1" x1="0%" y1="100%" x2="56.3%" y2="0%"><stop offset="14.444444444444446%" stop-color="#f17c53" stop-opacity="1"></stop><stop offset="85.55555555555554%" stop-color="#fbae3c" stop-opacity="1"></stop></linearGradient></defs><defs><linearGradient id="grad2_2" x1="0%" y1="100%" x2="56.3%" y2="0%"><stop offset="14.444444444444446%" stop-color="#f17c53" stop-opacity="1"></stop><stop offset="85.55555555555554%" stop-color="#cc5867" stop-opacity="1"></stop></linearGradient></defs><defs><linearGradient id="grad2_3" x1="0%" y1="100%" x2="56.3%" y2="0%"><stop offset="14.444444444444446%" stop-color="#96446e" stop-opacity="1"></stop><stop offset="85.55555555555554%" stop-color="#cc5867" stop-opacity="1"></stop></linearGradient></defs><defs><linearGradient id="grad2_4" x1="0%" y1="100%" x2="56.3%" y2="0%"><stop offset="14.444444444444446%" stop-color="#96446e" stop-opacity="1"></stop><stop offset="85.55555555555554%" stop-color="#593762" stop-opacity="1"></stop></linearGradient></defs><defs><linearGradient id="grad2_5" x1="0%" y1="100%" x2="56.3%" y2="0%"><stop offset="14.444444444444446%" stop-color="#232745" stop-opacity="1"></stop><stop offset="85.55555555555554%" stop-color="#593762" stop-opacity="1"></stop></linearGradient></defs><defs><linearGradient id="grad2_6" x1="0%" y1="100%" x2="56.3%" y2="0%"><stop offset="14.444444444444446%" stop-color="#232745" stop-opacity="1"></stop><stop offset="85.55555555555554%" stop-color="#001220" stop-opacity="1"></stop></linearGradient></defs><g transform="translate(960, 540)"><path d="M-378 0C-356.9 -23.5 -335.8 -47 -331.5 -75.7C-327.2 -104.4 -339.7 -138.3 -326.2 -157.1C-312.6 -175.8 -272.9 -179.5 -256.4 -204.5C-240 -229.5 -246.9 -276 -226.3 -283.8C-205.8 -291.6 -157.7 -260.8 -131.9 -273.9C-106.1 -287 -102.4 -343.9 -84.1 -368.5C-65.8 -393.2 -32.9 -385.6 0 -378L0 0Z" fill="#0f1d33"></path><path d="M-324 0C-305.9 -20.1 -287.8 -40.2 -284.1 -64.8C-280.4 -89.5 -291.2 -118.5 -279.6 -134.6C-267.9 -150.7 -233.9 -153.8 -219.8 -175.3C-205.7 -196.7 -211.6 -236.6 -194 -243.3C-176.4 -250 -135.2 -223.6 -113.1 -234.8C-90.9 -246 -87.8 -294.7 -72.1 -315.9C-56.4 -337 -28.2 -330.5 0 -324L0 0Z" fill="#3d3056"></path><path d="M-270 0C-254.9 -16.8 -239.8 -33.5 -236.8 -54C-233.7 -74.5 -242.7 -98.8 -233 -112.2C-223.3 -125.6 -194.9 -128.2 -183.2 -146.1C-171.4 -164 -176.4 -197.1 -161.7 -202.7C-147 -208.3 -112.7 -186.3 -94.2 -195.6C-75.8 -205 -73.1 -245.6 -60.1 -263.2C-47 -280.8 -23.5 -275.4 0 -270L0 0Z" fill="#773d6b"></path><path d="M-216 0C-203.9 -13.4 -191.9 -26.8 -189.4 -43.2C-187 -59.6 -194.1 -79 -186.4 -89.8C-178.6 -100.5 -155.9 -102.6 -146.5 -116.9C-137.2 -131.2 -141.1 -157.7 -129.3 -162.2C-117.6 -166.6 -90.1 -149 -75.4 -156.5C-60.6 -164 -58.5 -196.5 -48.1 -210.6C-37.6 -224.7 -18.8 -220.3 0 -216L0 0Z" fill="#b34c6d"></path><path d="M-162 0C-152.9 -10.1 -143.9 -20.1 -142.1 -32.4C-140.2 -44.7 -145.6 -59.3 -139.8 -67.3C-134 -75.4 -116.9 -76.9 -109.9 -87.6C-102.9 -98.4 -105.8 -118.3 -97 -121.6C-88.2 -125 -67.6 -111.8 -56.5 -117.4C-45.5 -123 -43.9 -147.4 -36 -157.9C-28.2 -168.5 -14.1 -165.3 0 -162L0 0Z" fill="#e1685e"></path><path d="M-108 0C-102 -6.7 -95.9 -13.4 -94.7 -21.6C-93.5 -29.8 -97.1 -39.5 -93.2 -44.9C-89.3 -50.2 -78 -51.3 -73.3 -58.4C-68.6 -65.6 -70.5 -78.9 -64.7 -81.1C-58.8 -83.3 -45.1 -74.5 -37.7 -78.3C-30.3 -82 -29.3 -98.2 -24 -105.3C-18.8 -112.3 -9.4 -110.2 0 -108L0 0Z" fill="#f99447"></path><path d="M-54 0C-51 -3.4 -48 -6.7 -47.4 -10.8C-46.7 -14.9 -48.5 -19.8 -46.6 -22.4C-44.7 -25.1 -39 -25.6 -36.6 -29.2C-34.3 -32.8 -35.3 -39.4 -32.3 -40.5C-29.4 -41.7 -22.5 -37.3 -18.8 -39.1C-15.2 -41 -14.6 -49.1 -12 -52.6C-9.4 -56.2 -4.7 -55.1 0 -54L0 0Z" fill="#fbae3c"></path></g><g transform="translate(0, 0)"><path d="M378 0C362.6 24.6 347.1 49.3 343.2 78.3C339.2 107.4 346.7 140.9 328.9 158.4C311 175.8 267.9 177.2 252.5 201.4C237.2 225.6 249.6 272.5 235.7 295.5C221.8 318.5 181.6 317.6 148.8 309C116.1 300.4 90.8 284.2 67.2 294.4C43.6 304.6 21.8 341.3 0 378L0 0Z" fill="#0f1d33"></path><path d="M324 0C310.8 21.1 297.6 42.2 294.1 67.1C290.7 92.1 297.2 120.8 281.9 135.7C266.6 150.7 229.6 151.9 216.5 172.6C203.3 193.3 213.9 233.6 202 253.3C190.1 273 155.6 272.2 127.6 264.9C99.5 257.5 77.8 243.6 57.6 252.4C37.4 261.1 18.7 292.6 0 324L0 0Z" fill="#3d3056"></path><path d="M270 0C259 17.6 248 35.2 245.1 55.9C242.3 76.7 247.6 100.7 234.9 113.1C222.2 125.6 191.4 126.6 180.4 143.8C169.4 161.1 178.3 194.7 168.3 211.1C158.4 227.5 129.7 226.9 106.3 220.7C82.9 214.6 64.8 203 48 210.3C31.2 217.6 15.6 243.8 0 270L0 0Z" fill="#773d6b"></path><path d="M216 0C207.2 14.1 198.4 28.1 196.1 44.8C193.8 61.4 198.1 80.5 187.9 90.5C177.7 100.5 153.1 101.3 144.3 115.1C135.5 128.9 142.6 155.7 134.7 168.9C126.7 182 103.8 181.5 85 176.6C66.3 171.7 51.9 162.4 38.4 168.2C24.9 174.1 12.5 195 0 216L0 0Z" fill="#b34c6d"></path><path d="M162 0C155.4 10.6 148.8 21.1 147.1 33.6C145.4 46 148.6 60.4 140.9 67.9C133.3 75.4 114.8 75.9 108.2 86.3C101.6 96.7 107 116.8 101 126.7C95 136.5 77.8 136.1 63.8 132.4C49.7 128.8 38.9 121.8 28.8 126.2C18.7 130.6 9.4 146.3 0 162L0 0Z" fill="#e1685e"></path><path d="M108 0C103.6 7 99.2 14.1 98 22.4C96.9 30.7 99.1 40.3 94 45.2C88.9 50.2 76.5 50.6 72.2 57.5C67.8 64.4 71.3 77.9 67.3 84.4C63.4 91 51.9 90.7 42.5 88.3C33.2 85.8 25.9 81.2 19.2 84.1C12.5 87 6.2 97.5 0 108L0 0Z" fill="#f99447"></path><path d="M54 0C51.8 3.5 49.6 7 49 11.2C48.5 15.3 49.5 20.1 47 22.6C44.4 25.1 38.3 25.3 36.1 28.8C33.9 32.2 35.7 38.9 33.7 42.2C31.7 45.5 25.9 45.4 21.3 44.1C16.6 42.9 13 40.6 9.6 42.1C6.2 43.5 3.1 48.8 0 54L0 0Z" fill="#fbae3c"></path></g></svg>